# xmcd
#
# Track frame offsets:
#	150
#	12598
#	25979
#	42332
#	54968
#	67547
#	85959
#	99297
#	112182
#	129773
#	141320
#	155906
#	169046
#	189059
#	210139
#	232269
#	244521
#	261944
#	274986
#	289711
#	306724
#
# Disc length: 4300 seconds
#
# Revision: 0
# Processed by: cddbd v1.5.1PL2 Copyright (c) Steve Scherf et al.
# Submitted via: EasyCDDAExtractor 9.0.0.1
#
DISCID=2710ca15
DTITLE=Merle Haggard - For The Record (43 Legendary Hits) [CD2]
DYEAR=1999
DGENRE=Country
TTITLE0=The Roots Of My Raisin'
TTITLE1=Cherokee Maiden
TTITLE2=Ramblin' Fever (Duet With Alabama)
TTITLE3=I'm Always On A Mountain When I Fall
TTITLE4=It's Been A Great Afternoon
TTITLE5=Footlights
TTITLE6=The Way I Am
TTITLE7=Misery And Gin
TTITLE8=I Think I'll Just Stay Here And Drink
TTITLE9=Rainbow Stew
TTITLE10=My Favorite Memory
TTITLE11=Big City
TTITLE12=Pancho And Lefty (Duet With Willie Nelson)
TTITLE13=Are The Good Times Really Over
TTITLE14=Going Where The Lonely Go
TTITLE15=Let's Chase Each Other Around The Room
TTITLE16=A Place To Fall Apart
TTITLE17=That's The Way Love Goes (Duet With Jewel)
TTITLE18=Natural High
TTITLE19=Kern River
TTITLE20=Twinkle Twinkle Lucky Star
EXTD=YEAR: 1999 ID3G:   2\n
EXTT0=
EXTT1=
EXTT2=
EXTT3=
EXTT4=
EXTT5=
EXTT6=
EXTT7=
EXTT8=
EXTT9=
EXTT10=
EXTT11=
EXTT12=
EXTT13=
EXTT14=
EXTT15=
EXTT16=
EXTT17=
EXTT18=
EXTT19=
EXTT20=
PLAYORDER=
